<?xml version="1.0"?>
<svg width="512" height="512" xmlns="http://www.w3.org/2000/svg" xmlns:svg="http://www.w3.org/2000/svg">
 <g class="layer">
  <title>Layer 1</title>
  <g id="svg_2">
   <path d="m497,115l-480,0c-8.82,0 -16,7.18 -16,16l0,256c0,8.82 7.18,16 16,16l480,0c8.82,0 16,-7.18 16,-16l0,-256c0,-8.82 -7.18,-16 -16,-16z" fill="#74D24F" id="svg_3"/>
  </g>
  <g id="svg_4">
   <path d="m473,195c-22.055,0 -40,-17.945 -40,-40c0,-4.422 -3.578,-8 -8,-8l-336,0c-4.422,0 -8,3.578 -8,8c0,22.055 -17.945,40 -40,40c-4.422,0 -8,3.578 -8,8l0,112c0,4.422 3.578,8 8,8c22.055,0 40,17.945 40,40c0,4.422 3.578,8 8,8l336,0c4.422,0 8,-3.578 8,-8c0,-22.055 17.945,-40 40,-40c4.422,0 8,-3.578 8,-8l0,-112c0,-4.422 -3.578,-8 -8,-8z" fill="#FFEFBC" id="svg_5"/>
  </g>
  <g id="svg_6">
   <path d="m129,259c0,48.221 26.691,90.175 66.081,112l123.839,0c39.389,-21.825 66.08,-63.779 66.08,-112s-26.691,-90.175 -66.081,-112l-123.839,0c-39.389,21.825 -66.08,63.779 -66.08,112z" fill="#869B55" id="svg_7"/>
  </g>
  <g id="svg_10">
   <circle cx="81" cy="259" fill="#74D24F" id="svg_11" r="24"/>
  </g>
  <g id="svg_12">
   <circle cx="433" cy="259" fill="#74D24F" id="svg_13" r="24"/>
  </g>
  <g id="svg_14">
   <circle cx="41" cy="155" fill="#869B55" id="svg_15" r="16"/>
  </g>
  <g id="svg_16">
   <circle cx="473" cy="155" fill="#869B55" id="svg_17" r="16"/>
  </g>
  <g id="svg_18">
   <circle cx="41" cy="363" fill="#869B55" id="svg_19" r="16"/>
  </g>
  <g id="svg_20">
   <circle cx="473" cy="363" fill="#869B55" id="svg_21" r="16"/>
  </g>
  <g id="svg_22"/>
  <g id="svg_23"/>
  <g id="svg_24"/>
  <g id="svg_25"/>
  <g id="svg_26"/>
  <g id="svg_27"/>
  <g id="svg_28"/>
  <g id="svg_29"/>
  <g id="svg_30"/>
  <g id="svg_31"/>
  <g id="svg_32"/>
  <g id="svg_33"/>
  <g id="svg_34"/>
  <g id="svg_35"/>
  <g id="svg_36"/>
  <path d="m181.45248,325.847702l89.584954,-131.424152l89.584954,131.424152l-179.169907,0z" fill="#00bf00" id="svg_37" stroke="#000000" stroke-width="5" transform="rotate(89.2342 271.037 260.136)"/>
 </g>
</svg>